<?xml version="1.0" encoding="UTF-8"?>
<svg width="300px" height="300px" viewBox="0 0 300 300" version="1.1" xmlns="http://www.w3.org/2000/svg" xmlns:xlink="http://www.w3.org/1999/xlink">
    <title>Artboard</title>
    <defs>
        <linearGradient x1="55.1881369%" y1="123.582934%" x2="40.7202547%" y2="-11.7639542%" id="linearGradient-1">
            <stop stop-color="#D6C6A6" stop-opacity="0.5" offset="0%"></stop>
            <stop stop-color="#FFFBF3" stop-opacity="0.5" offset="100%"></stop>
        </linearGradient>
        <path d="M76.916556,-2.07168062e-15 L223.083444,3.10752092e-15 C249.829006,-1.80555915e-15 259.527593,2.78476833 269.305371,8.01398111 C279.083149,13.2431939 286.756806,20.9168511 291.986019,30.6946289 C297.215232,40.4724067 300,50.1709938 300,76.916556 L300,223.083444 C300,249.829006 297.215232,259.527593 291.986019,269.305371 C286.756806,279.083149 279.083149,286.756806 269.305371,291.986019 C259.527593,297.215232 249.829006,300 223.083444,300 L76.916556,300 C50.1709938,300 40.4724067,297.215232 30.6946289,291.986019 C20.9168511,286.756806 13.2431939,279.083149 8.01398111,269.305371 C2.78476833,259.527593 6.01853049e-16,249.829006 -1.03584031e-15,223.083444 L2.07168062e-15,76.916556 C-1.2037061e-15,50.1709938 2.78476833,40.4724067 8.01398111,30.6946289 C13.2431939,20.9168511 20.9168511,13.2431939 30.6946289,8.01398111 C40.4724067,2.78476833 50.1709938,1.2037061e-15 76.916556,-2.07168062e-15 Z" id="path-2"></path>
    </defs>
    <g id="Artboard" stroke="none" stroke-width="1" fill="none" fill-rule="evenodd">
        <g id="Background">
            <use fill="#EBD9B4" xlink:href="#path-2"></use>
            <use fill="url(#linearGradient-1)" xlink:href="#path-2"></use>
        </g>
        <g id="Ropeless-Logo" transform="translate(32, 31.7701)">
            <g id="Wall" transform="translate(-0, -0.0153)">
                <polygon id="Rectangle" fill="#F9EFDB" points="35.8412404 0.245166429 193.857143 0.245166429 103.191718 235.617206 0 236.245166"></polygon>
                <g id="Boulder" transform="translate(51.237, 0)" fill="#638889">
                    <path d="M74.1931867,25.0507457 C73.5028123,27.6119847 67.0156879,44.9463787 62.7117452,39.9845889 C60.5478864,37.4899897 61.1120433,23.7240463 58.9844976,17.3405521 C55.5693089,7.09360988 47.7554941,2.89505044 49.4365006,0.153506848 C52.9455538,-1.88940577 59.5617235,-2.2599472 64.674209,2.51782735 C71.2156993,8.63105078 76.0315172,18.4816338 74.1931867,25.0507457 Z" id="Path-Copy-5" transform="translate(61.8954, 19.7972) rotate(-252) translate(-61.8954, -19.7972)"></path>
                    <path d="M56.9333284,182.35215 C58.8331441,181.949529 64.9376211,186.971676 64.1080702,189.560085 C67.0431391,193.313273 54.7204148,194.765261 53.6250086,192.674947 C52.4513462,190.4353 54.9099156,182.780966 56.9333284,182.35215 Z" id="Path-Copy"></path>
                    <path d="M13.274928,113.09529 C17.4100349,112.791742 21.4503174,115.522924 25.3957755,121.288836 C12.5177802,125.440021 4.88479832,126.702852 2.49683004,125.077331 C-1.3410185,122.464857 6.66873846,113.580233 13.274928,113.09529 Z" id="Path-Copy-3" transform="translate(13.4472, 119.418) scale(1, -1) rotate(22) translate(-13.4472, -119.418)"></path>
                    <path d="M120.690698,2.84132324 C123.612991,0.206720588 134.223211,1.75118089 137.128466,3.85042873 C139.005633,5.53134917 140.968065,10.5292865 135.039113,12.263737 C132.50151,15.0258951 125.595532,20.1429533 121.592825,17.8092915 C118.770765,16.0717626 118.760687,5.11467727 120.690698,2.84132324 Z" id="Path" transform="translate(129.1772, 9.9259) scale(-1, 1) rotate(-171) translate(-129.1772, -9.9259)"></path>
                    <path d="M16.7922114,224.785005 C18.6577411,224.420006 25.6478636,225.213979 24.8388833,227.588875 C27.7311379,231.042777 13.9139756,234.53406 12.8329478,232.611775 C11.674691,230.55216 14.8053152,225.17375 16.7922114,224.785005 Z" id="Path-Copy-4" transform="translate(18.9095, 228.9298) rotate(29) translate(-18.9095, -228.9298)"></path>
                </g>
            </g>
            <g id="Person" transform="translate(103.1917, 5.9461)" fill="#193233">
                <path d="M52.9419487,229.655832 C56.6917352,229.655832 56.6917352,211.876849 52.9419487,176.318883 L99.8076276,112.283792 L113.524182,123.179354 C109.64228,150.07128 108.737236,163.191244 110.809051,162.539246 C115.030745,161.210684 128.593996,130.65505 128.183015,118.566235 C125.457227,111.456537 111.071167,96.7082715 85.024833,74.3214393 C83.6055521,24.7738131 81.5651222,0 78.9035434,0 C76.1952237,0 72.865755,24.7738131 68.9151374,74.3214393 L46.2534003,114.827916 C17.5135824,117.320129 2.09578225,120.872222 0,125.484196 C0,134.616464 3.14367337,176.972116 7.38850211,180.661079 C9.59597327,182.579478 12.1704962,168.564892 15.112071,138.617319 C38.5767813,138.617319 50.3091365,138.617319 50.3091365,138.617319 C50.3091365,138.617319 40.1989365,155.523351 34.5749193,171.604956 C39.8084818,185.743081 46.2534003,229.655832 52.9419487,229.655832 Z" id="Body"></path>
                <ellipse id="Head" cx="111.736853" cy="64.9424749" rx="21.0714286" ry="21.1976048"></ellipse>
            </g>
            <g id="Chalkbag" transform="translate(147.6168, 115.8069)" fill="#9DBC98">
                <polygon id="Belt" transform="translate(18.061, 16.7572) rotate(42) translate(-18.061, -16.7572)" points="-3.77951967 13.8735016 39.8848528 14.0031695 39.9015842 19.6407991 -3.76278833 19.5111313"></polygon>
                <path d="M29.7275872,27.8358382 L47.9894919,27.8358382 C47.9894919,40.0833432 44.5518999,46.2070957 37.676716,46.2070957 C32.3772968,46.2070957 29.7275872,40.0833432 29.7275872,27.8358382 Z" id="Bag"></path>
            </g>
        </g>
    </g>
</svg>