<?xml version="1.0" encoding="UTF-8"?>
<svg width="166px" height="121px" viewBox="0 0 166 121" version="1.1" xmlns="http://www.w3.org/2000/svg" xmlns:xlink="http://www.w3.org/1999/xlink">
    <title>Logo/Pausing</title>
    <defs>
        <path d="M4.54870078,2.90730864 C8.21402537,2.03945934 10.3648646,1.25447288 11.0012183,0.552349245 C11.6686972,-0.184116415 13.357615,-0.184116415 16.0679715,0.552349245 L16,3.05112497 L16.378554,4.88259113 C16.4909979,5.42330807 16.1438141,5.95279957 15.6030971,6.06524348 C15.4998731,6.08670927 15.3939039,6.09171591 15.2891158,6.08007792 C12.6162681,5.7901715 10.5857443,5.64508371 9.19751454,5.64508371 C7.9362437,5.64508371 5.7923167,5.9262288 2.76573353,6.48851897 L2.76572781,6.48848813 C2.29819548,6.57534807 1.84877175,6.26675213 1.76191182,5.7992198 C1.71005475,5.52009394 1.79912419,5.23334546 2,5.03272315 L3.59769003,3.43711704 C3.85961648,3.17599336 4.18882012,2.99261372 4.54871276,2.90735922 Z" id="path-1"></path>
        <path d="M4.54870078,2.90730864 C8.21402537,2.03945934 10.3648646,1.25447288 11.0012183,0.552349245 C11.6686972,-0.184116415 13.357615,-0.184116415 16.0679715,0.552349245 L16,3.05112497 L16.378554,4.88259113 C16.4909979,5.42330807 16.1438141,5.95279957 15.6030971,6.06524348 C15.4998731,6.08670927 15.3939039,6.09171591 15.2891158,6.08007792 C12.6162681,5.7901715 10.5857443,5.64508371 9.19751454,5.64508371 C7.9362437,5.64508371 5.7923167,5.9262288 2.76573353,6.48851897 L2.76572781,6.48848813 C2.29819548,6.57534807 1.84877175,6.26675213 1.76191182,5.7992198 C1.71005475,5.52009394 1.79912419,5.23334546 2,5.03272315 L3.59769003,3.43711704 C3.85961648,3.17599336 4.18882012,2.99261372 4.54871276,2.90735922 Z" id="path-3"></path>
    </defs>
    <g id="Logo/Pausing" stroke="none" stroke-width="1" fill="none" fill-rule="evenodd">
        <g id="Matrace" transform="translate(4.2653, 33.6475)">
            <polygon id="Rectangle" fill="#FFF5DF" transform="translate(74.9941, 41.6278) rotate(14) translate(-74.9941, -41.6278)" points="40.4694679 25.8197711 145.194155 16.2284522 144.514056 63.8542664 4.79412048 67.0271379"></polygon>
            <polygon id="Rectangle" fill="#EBD9B4" transform="translate(74.6268, 43.4401) rotate(13) translate(-74.6268, -43.4401)" points="3.94444291 65.7619227 142.69583 64.6850621 145.309129 17.8521685 143.698472 69.0279835 4.69847247 69.0279835"></polygon>
        </g>
        <g id="Chalkbag" transform="translate(111.0731, 84.6628)">
            <path d="M0.652370453,0.33721525 L10.6523705,0.33721525 C10.132402,5.31060417 10.132402,8.45904637 10.6523705,9.78254186 C11.0102801,10.693543 6.18852408,10.3372152 5.00521806,10.3372152 C4.00726983,10.3372152 0,9.78254186 0,9.78254186 C0.754841437,7.24183259 0.972298255,4.09339039 0.652370453,0.33721525 Z" id="Bag" fill="#9DBC98"></path>
            <path d="M5.8467272,1 C8.0558662,1 10.6523705,0.776142375 10.6523705,0.5 C10.6523705,0.223857625 8.0558662,0 5.8467272,0 C3.6375882,0 0.652370453,0.223857625 0.652370453,0.5 C0.652370453,0.776142375 3.6375882,1 5.8467272,1 Z" id="Oval" fill="#193233"></path>
        </g>
        <g id="Person" transform="translate(57.4107, 13)" fill="#193233">
            <ellipse id="Head" cx="34.8462243" cy="9.45352673" rx="9.5" ry="9.45352673"></ellipse>
            <path d="M16.3142096,82.9380898 C17.9762442,82.9380898 22.7051894,77.0990172 30.5010452,65.4208721 C32.7703032,62.0215372 37.5445352,57.0890517 37.5445352,50.9919385 C37.5445352,46.9271963 39.1103398,39.8187504 42.241949,29.6666008 L47.4626205,41.5397 C50.1083837,51.2443177 52.2365583,55.8459425 53.8471444,55.3445746 C56.2630235,54.5925226 53.3248474,45.312093 53.0896622,38.4690449 C52.4595554,36.8433064 49.6877644,24.9681534 46.9629087,22.5 C44.5199591,20.287195 25.0335736,17.298139 22.5558082,19.1407173 C21.0683154,20.5361579 20.0272344,26.9789338 19.4325651,38.4690449 L22.1587136,27.2238376 L18.3522029,44.239086 C13.2859099,51.0385917 10.1294219,55.5179302 8.88273891,57.6771017 C1.88008129,69.8052361 -0.982196807,76.418663 0.295904626,77.5173824 C1.55913766,78.6033202 6.58670311,73.0322838 15.378601,60.8042733 C20.6903499,56.0083569 23.3462243,53.6103987 23.3462243,53.6103987 C23.3462243,53.6103987 22.9503874,56.5473652 22.1587136,62.4212982 C15.7106809,76.0991592 13.7625129,82.9380898 16.3142096,82.9380898 Z" id="Body"></path>
        </g>
        <g id="Brush" transform="translate(23, 77)">
            <rect id="Rectangle" fill="#A78B52" x="0" y="3" width="18" height="1"></rect>
            <rect id="Rectangle" fill="#A78B52" x="10" y="2" width="8" height="1"></rect>
            <rect id="Rectangle" fill="#EBD9B4" x="17" y="0" width="1" height="2"></rect>
            <rect id="Rectangle-Copy-2" fill="#EBD9B4" x="16" y="0" width="1" height="2"></rect>
            <rect id="Rectangle-Copy-3" fill="#EBD9B4" x="15" y="0" width="1" height="2"></rect>
            <rect id="Rectangle-Copy-4" fill="#EBD9B4" x="14" y="0" width="1" height="2"></rect>
            <rect id="Rectangle-Copy-5" fill="#EBD9B4" x="13" y="0" width="1" height="2"></rect>
            <rect id="Rectangle-Copy-6" fill="#EBD9B4" x="12" y="0" width="1" height="2"></rect>
            <rect id="Rectangle-Copy-7" fill="#EBD9B4" x="11" y="0" width="1" height="2"></rect>
        </g>
        <g id="Shoe-Copy" transform="translate(40, 63.4477)">
            <mask id="mask-2" fill="white">
                <use xlink:href="#path-1"></use>
            </mask>
            <use id="Rectangle" fill="#638889" xlink:href="#path-1"></use>
            <ellipse id="Oval" fill="#141713" mask="url(#mask-2)" transform="translate(13.5267, 0.4217) rotate(2) translate(-13.5267, -0.4217)" cx="13.5267013" cy="0.4216609" rx="2" ry="1"></ellipse>
            <rect id="Rectangle" fill="#9DBC98" mask="url(#mask-2)" transform="translate(9, 2.0523) rotate(16) translate(-9, -2.0523)" x="6" y="1.55234925" width="6" height="1" rx="0.5"></rect>
            <path d="M2.20887078,5.09829952 L2.07583059,4.83480242 C2.04846396,4.78060054 1.98233961,4.75884627 1.92813773,4.7862129 C1.88481828,4.80808498 1.86096285,4.855772 1.86943777,4.9035542 L1.93837963,5.2922533 C1.97914511,5.52209196 2.05983127,5.74301996 2.17678466,5.94503366 L2.24869728,6.06924841 C2.39804743,6.32722109 2.69266831,6.46439386 2.9862265,6.41263524 L7.50394183,5.61609575 C8.56970092,5.42818679 9.65475326,5.37409138 10.7339175,5.45506494 L14.7902293,5.75942454 C15.4227332,5.80688357 16.0279582,5.49370657 16.354541,4.9499629 C16.354541,4.9499629 16.354541,4.9499629 16.354541,4.9499629 C16.354541,4.9499629 16.2896262,4.7840293 16.1597965,4.4521621 C16.1193046,4.86498436 16.0066625,5.15864009 15.8218704,5.33312928 C15.6370782,5.50761848 15.2105477,5.67551947 14.5422788,5.83683226 L9.10883646,5.33312928 L3.71559633,5.91693945 C3.09188184,5.98445561 2.49162785,5.6583233 2.20887078,5.09829952 Z" id="Path-2" stroke="#193233" mask="url(#mask-2)"></path>
            <rect id="Rectangle-Copy" fill="#9DBC98" mask="url(#mask-2)" transform="translate(6, 2.8599) rotate(16) translate(-6, -2.8599)" x="3" y="2.35989216" width="6" height="1" rx="0.5"></rect>
        </g>
        <g id="Shoe" transform="translate(39, 65.4477)">
            <mask id="mask-4" fill="white">
                <use xlink:href="#path-3"></use>
            </mask>
            <use id="Rectangle" fill="#638889" xlink:href="#path-3"></use>
            <ellipse id="Oval" fill="#141713" mask="url(#mask-4)" transform="translate(13.5267, 0.4217) rotate(2) translate(-13.5267, -0.4217)" cx="13.5267013" cy="0.4216609" rx="2" ry="1"></ellipse>
            <rect id="Rectangle" fill="#9DBC98" mask="url(#mask-4)" transform="translate(9, 2.0523) rotate(16) translate(-9, -2.0523)" x="6" y="1.55234925" width="6" height="1" rx="0.5"></rect>
            <path d="M2.54027472,4.85051909 L2.55070391,4.80652883 C2.56173723,4.75999034 2.5329546,4.71331917 2.48641611,4.70228585 C2.44564472,4.69261979 2.40380132,4.71353014 2.38705466,4.75193963 L2.19838339,5.18466881 C2.07364142,5.47077221 2.09231831,5.79913485 2.24869728,6.06924841 C2.39804743,6.32722109 2.69266831,6.46439386 2.9862265,6.41263524 L7.50394183,5.61609575 C8.56970092,5.42818679 9.65475326,5.37409138 10.7339175,5.45506494 L14.7902293,5.75942454 C15.4227332,5.80688357 16.0279582,5.49370657 16.354541,4.9499629 C16.354541,4.9499629 16.354541,4.9499629 16.354541,4.9499629 C16.354541,4.9499629 16.2896262,4.7840293 16.1597965,4.4521621 C16.1193046,4.86498436 16.0066625,5.15864009 15.8218704,5.33312928 C15.6370782,5.50761848 15.2105477,5.67551947 14.5422788,5.83683226 L9.10883646,5.33312928 L3.31732546,5.76197835 C2.90850694,5.79225049 2.55255363,5.48537802 2.52228149,5.0765595 C2.51666691,5.00073585 2.52273545,4.92449966 2.54027472,4.85051909 Z" id="Path-2" stroke="#193233" mask="url(#mask-4)"></path>
            <rect id="Rectangle-Copy" fill="#9DBC98" mask="url(#mask-4)" transform="translate(6, 2.8599) rotate(16) translate(-6, -2.8599)" x="3" y="2.35989216" width="6" height="1" rx="0.5"></rect>
        </g>
    </g>
</svg>