<?xml version="1.0" standalone="no"?>
<!DOCTYPE svg PUBLIC "-//W3C//DTD SVG 20010904//EN"
 "http://www.w3.org/TR/2001/REC-SVG-20010904/DTD/svg10.dtd">
<svg version="1.0" xmlns="http://www.w3.org/2000/svg"
 width="292.000000pt" height="292.000000pt" viewBox="0 0 292.000000 292.000000"
 preserveAspectRatio="xMidYMid meet">
<metadata>
Created by potrace 1.14, written by Peter Selinger 2001-2017
</metadata>
<g transform="translate(0.000000,292.000000) scale(0.100000,-0.100000)"
fill="#000000" stroke="none">
<path d="M80 2892 c-20 -10 -42 -32 -52 -52 -17 -33 -18 -120 -18 -1386 0
-1212 2 -1354 16 -1383 32 -64 -5 -62 847 -60 811 1 862 3 1050 48 473 113
793 425 926 903 56 204 58 239 60 1081 1 682 0 781 -14 807 -33 64 60 60
-1427 60 -1268 0 -1355 -1 -1388 -18z"/>
</g>
</svg>
